<svg width="132" height="132" viewBox="0 0 132 132" fill="none" xmlns="http://www.w3.org/2000/svg">
<g clip-path="url(#clip0_24_49)">
<path d="M12.5671 79.1178C12.5671 79.1178 13.7798 74.1132 9.60172 69.7981C5.41949 65.4705 0.186502 65.4705 0.186502 65.4705C0.186502 65.4705 -1.08852 71.3555 2.98989 75.5668C7.07245 79.774 12.5671 79.1178 12.5671 79.1178Z" fill="white"/>
<path d="M76.4342 83.1837V37.2871H65.6193C65.5321 39.181 65.0836 40.7716 64.2654 42.0674C63.4514 43.3632 62.4089 44.4015 61.1381 45.1657C59.8589 45.9382 58.4344 46.4822 56.8478 46.8145C55.2655 47.1426 53.6416 47.2879 51.9679 47.2464V56.7405H62.7204V83.1837H76.4342Z" fill="white"/>
<path d="M34.4039 58.9583C34.0633 57.0893 33.864 55.1747 33.864 53.2061C33.864 35.4389 48.2381 20.9817 65.9679 20.8281V20.8447C83.7352 20.961 98.1508 35.4389 98.1508 53.2269C98.1508 55.1955 97.9473 57.1101 97.6109 58.979H105.739C106.004 57.0935 106.191 55.1872 106.191 53.2269C106.191 31.0282 88.204 12.9578 66.0427 12.8V12.7751C43.844 12.8914 25.8193 30.9826 25.8193 53.2061C25.8193 55.1664 26.0062 57.0727 26.2761 58.9583H34.4039Z" fill="white"/>
<path d="M21.7455 78.1708C21.7455 78.1708 26.6006 75.5003 27.4644 69.7108C28.3283 63.913 23.8636 59.8678 23.8636 59.8678C23.8636 59.8678 19.615 62.9162 18.7262 68.8635C17.8416 74.8026 21.7455 78.1708 21.7455 78.1708Z" fill="white"/>
<path d="M24.9313 83.894C24.8317 89.8995 29.1385 92.7278 29.1385 92.7278C29.1385 92.7278 33.6032 89.4468 33.707 83.5909C33.8025 77.7349 28.8519 74.3044 28.8519 74.3044C28.8519 74.3044 25.031 77.8761 24.9313 83.894Z" fill="white"/>
<path d="M38.1132 82.7767C38.1132 82.7767 34.6494 86.6973 35.1104 92.6986C35.5756 98.6917 40.1274 101.092 40.1274 101.092C40.1274 101.092 44.2681 97.4125 43.8196 91.569C43.3628 85.7296 38.1132 82.7767 38.1132 82.7767Z" fill="white"/>
<path d="M53.9285 108.314C53.9285 108.314 56.8357 103.592 54.7217 98.1267C52.6036 92.6695 46.7227 91.3529 46.7227 91.3529C46.7227 91.3529 44.534 96.1083 46.7061 101.715C48.8782 107.322 53.9285 108.314 53.9285 108.314Z" fill="white"/>
<path d="M14.5356 66.2967C14.5356 66.2967 18.3275 62.8081 17.2435 56.8939C16.1678 50.984 11.8153 48.0768 11.8153 48.0768C11.8153 48.0768 7.49185 52.2673 8.54676 58.0361C9.59751 63.7965 14.5356 66.2967 14.5356 66.2967Z" fill="white"/>
<path d="M17.6505 90.4433C17.6505 90.4433 17.3349 85.3017 12.0687 82.4028C6.79829 79.508 1.79789 81.0488 1.79789 81.0488C1.79789 81.0488 2.31703 87.046 7.45449 89.8743C12.5837 92.6985 17.6505 90.4433 17.6505 90.4433Z" fill="white"/>
<path d="M26.5595 100.395C26.5595 100.395 25.1101 95.4564 19.333 93.7993C13.5477 92.1546 9.01656 94.7587 9.01656 94.7587C9.01656 94.7587 10.8564 100.494 16.4881 102.106C22.1239 103.713 26.5595 100.395 26.5595 100.395Z" fill="white"/>
<path d="M36.4939 107.467C36.4939 107.467 33.6158 103.202 27.6062 103.372C21.5924 103.543 18.0664 107.409 18.0664 107.409C18.0664 107.409 21.555 112.322 27.411 112.152C33.2669 111.978 36.4939 107.467 36.4939 107.467Z" fill="white"/>
<path d="M40.7416 110.358C34.7942 111.251 31.75 115.5 31.75 115.5C31.75 115.5 35.8034 119.96 41.5971 119.092C47.3949 118.216 50.0529 113.357 50.0529 113.357C50.0529 113.357 46.6764 109.461 40.7416 110.358Z" fill="white"/>
<path d="M16.5081 69.2206L13.6466 69.1251C13.6342 69.4325 13.0735 100.519 60.0291 114.291L60.8349 111.541C16.1219 98.4257 16.4666 70.4126 16.5081 69.2206Z" fill="white"/>
<path d="M119.436 79.1425C119.436 79.1425 124.939 79.7987 129.013 75.5916C133.088 71.3803 131.817 65.4952 131.817 65.4952C131.817 65.4952 126.584 65.4952 122.402 69.8187C118.223 74.1297 119.436 79.1425 119.436 79.1425Z" fill="white"/>
<path d="M104.539 69.7314C105.402 75.5292 110.257 78.1914 110.257 78.1914C110.257 78.1914 114.157 74.8273 113.277 68.8841C112.396 62.9409 108.143 59.8884 108.143 59.8884C108.143 59.8884 103.675 63.9336 104.539 69.7314Z" fill="white"/>
<path d="M98.3011 83.6111C98.3966 89.4629 102.87 92.7439 102.87 92.7439C102.87 92.7439 107.176 89.9198 107.077 83.9102C106.981 77.9005 103.164 74.3205 103.164 74.3205C103.164 74.3205 98.2056 77.7552 98.3011 83.6111Z" fill="white"/>
<path d="M88.1797 91.5937C87.7353 97.4372 91.876 101.117 91.876 101.117C91.876 101.117 96.4321 98.7164 96.8931 92.7234C97.3499 86.7303 93.8862 82.8015 93.8862 82.8015C93.8862 82.8015 88.6407 85.7544 88.1797 91.5937Z" fill="white"/>
<path d="M77.2814 98.1475C75.1716 103.617 78.0788 108.335 78.0788 108.335C78.0788 108.335 83.1332 107.347 85.3012 101.736C87.465 96.1249 85.2846 91.3737 85.2846 91.3737C85.2846 91.3737 79.4037 92.6903 77.2814 98.1475Z" fill="white"/>
<path d="M123.465 58.0569C124.52 52.2881 120.196 48.0976 120.196 48.0976C120.196 48.0976 115.844 51.0048 114.764 56.9189C113.684 62.8289 117.472 66.3217 117.472 66.3217C117.472 66.3217 122.414 63.8215 123.465 58.0569Z" fill="white"/>
<path d="M119.943 82.4277C114.673 85.3224 114.361 90.4682 114.361 90.4682C114.361 90.4682 119.424 92.7234 124.561 89.8992C129.69 87.0751 130.214 81.0737 130.214 81.0737C130.214 81.0737 125.209 79.5329 119.943 82.4277Z" fill="white"/>
<path d="M112.679 93.8239C106.897 95.4727 105.452 100.419 105.452 100.419C105.452 100.419 109.888 103.737 115.524 102.13C121.155 100.515 122.995 94.7791 122.995 94.7791C122.995 94.7791 118.46 92.1709 112.679 93.8239Z" fill="white"/>
<path d="M104.402 103.389C98.3961 103.218 95.5138 107.492 95.5138 107.492C95.5138 107.492 98.7325 112.002 104.597 112.173C110.453 112.343 113.941 107.426 113.941 107.426C113.941 107.426 110.415 103.567 104.402 103.389Z" fill="white"/>
<path d="M91.2692 110.379C85.326 109.486 81.9578 113.385 81.9578 113.385C81.9578 113.385 84.62 118.245 90.4137 119.121C96.2115 119.981 100.261 115.533 100.261 115.533C100.261 115.533 97.2165 111.272 91.2692 110.379Z" fill="white"/>
<path d="M118.369 69.1459L115.507 69.2456C115.545 70.4293 115.885 98.4424 71.1806 111.562L71.9863 114.316C118.942 100.54 118.377 69.4574 118.369 69.1459Z" fill="white"/>
</g>
<defs>
<clipPath id="clip0_24_49">
<rect width="132" height="132" fill="white"/>
</clipPath>
</defs>
</svg>
