<svg width="60" height="60" viewBox="0 0 60 60" fill="none" xmlns="http://www.w3.org/2000/svg">
<rect x="0.159912" y="0.440002" width="58.88" height="58.88" rx="29.44" fill="#009DFF"/>
<path d="M38.4199 38.11L33.9049 33.595C33.8349 33.525 33.7299 33.49 33.6249 33.49H33.2399C34.4649 32.16 35.1999 30.445 35.1999 28.52C35.1999 24.53 31.9099 21.24 27.9199 21.24C23.8949 21.24 20.6399 24.53 20.6399 28.52C20.6399 32.545 23.8949 35.8 27.9199 35.8C29.8099 35.8 31.5599 35.065 32.8549 33.875V34.225C32.8549 34.365 32.8899 34.47 32.9599 34.54L37.4749 39.055C37.6499 39.23 37.8949 39.23 38.0699 39.055L38.4199 38.705C38.5949 38.53 38.5949 38.285 38.4199 38.11ZM27.9199 34.68C24.4899 34.68 21.7599 31.95 21.7599 28.52C21.7599 25.125 24.4899 22.36 27.9199 22.36C31.3149 22.36 34.0799 25.125 34.0799 28.52C34.0799 31.95 31.3149 34.68 27.9199 34.68Z" fill="white"/>
</svg>
