<svg width="153" height="24" viewBox="0 0 153 24" fill="none" xmlns="http://www.w3.org/2000/svg">
<path d="M12.4588 17.8762L16.9415 20.7224C17.5196 21.087 18.2311 20.5445 18.0621 19.8774L16.7636 14.7722C16.7285 14.6307 16.734 14.4821 16.7797 14.3436C16.8253 14.2052 16.9091 14.0824 17.0215 13.9895L21.0417 10.6364C21.5664 10.2006 21.2996 9.32005 20.6148 9.27558L15.3672 8.9376C15.224 8.92927 15.0864 8.87941 14.971 8.79411C14.8557 8.70882 14.7678 8.59178 14.7179 8.45731L12.7612 3.52993C12.7094 3.38754 12.615 3.26453 12.4909 3.17761C12.3668 3.09069 12.219 3.04407 12.0674 3.04407C11.9159 3.04407 11.7681 3.09069 11.644 3.17761C11.5199 3.26453 11.4255 3.38754 11.3737 3.52993L9.41698 8.45731C9.36711 8.59178 9.27915 8.70882 9.16384 8.79411C9.04854 8.87941 8.91088 8.92927 8.7677 8.9376L3.52013 9.27558C2.83528 9.32005 2.56846 10.2006 3.09321 10.6364L7.11338 13.9895C7.22575 14.0824 7.30958 14.2052 7.35521 14.3436C7.40085 14.4821 7.40643 14.6307 7.37132 14.7722L6.1706 19.5039C5.96603 20.3044 6.81988 20.9536 7.50473 20.5178L11.6761 17.8762C11.7931 17.8019 11.9288 17.7624 12.0674 17.7624C12.2061 17.7624 12.3418 17.8019 12.4588 17.8762Z" fill="#FA8232"/>
<path d="M35.2279 17.8762L39.7105 20.7224C40.2887 21.087 41.0002 20.5445 40.8312 19.8774L39.5326 14.7722C39.4975 14.6307 39.5031 14.4821 39.5487 14.3436C39.5944 14.2052 39.6782 14.0824 39.7906 13.9895L43.8107 10.6364C44.3355 10.2006 44.0687 9.32005 43.3838 9.27558L38.1363 8.9376C37.9931 8.92927 37.8554 8.87941 37.7401 8.79411C37.6248 8.70882 37.5369 8.59178 37.487 8.45731L35.5303 3.52993C35.4785 3.38754 35.3841 3.26453 35.26 3.17761C35.1359 3.09069 34.988 3.04407 34.8365 3.04407C34.685 3.04407 34.5371 3.09069 34.413 3.17761C34.2889 3.26453 34.1946 3.38754 34.1428 3.52993L32.1861 8.45731C32.1362 8.59178 32.0482 8.70882 31.9329 8.79411C31.8176 8.87941 31.68 8.92927 31.5368 8.9376L26.2892 9.27558C25.6044 9.32005 25.3375 10.2006 25.8623 10.6364L29.8825 13.9895C29.9948 14.0824 30.0787 14.2052 30.1243 14.3436C30.1699 14.4821 30.1755 14.6307 30.1404 14.7722L28.9397 19.5039C28.7351 20.3044 29.5889 20.9536 30.2738 20.5178L34.4452 17.8762C34.5621 17.8019 34.6979 17.7624 34.8365 17.7624C34.9751 17.7624 35.1109 17.8019 35.2279 17.8762Z" fill="#FA8232"/>
<path d="M57.997 17.8762L62.4797 20.7224C63.0578 21.087 63.7693 20.5445 63.6003 19.8774L62.3018 14.7722C62.2667 14.6307 62.2723 14.4821 62.3179 14.3436C62.3635 14.2052 62.4473 14.0824 62.5597 13.9895L66.5799 10.6364C67.1046 10.2006 66.8378 9.32005 66.153 9.27558L60.9054 8.9376C60.7622 8.92927 60.6246 8.87941 60.5093 8.79411C60.3939 8.70882 60.306 8.59178 60.2561 8.45731L58.2994 3.52993C58.2476 3.38754 58.1532 3.26453 58.0291 3.17761C57.905 3.09069 57.7572 3.04407 57.6057 3.04407C57.4541 3.04407 57.3063 3.09069 57.1822 3.17761C57.0581 3.26453 56.9637 3.38754 56.9119 3.52993L54.9552 8.45731C54.9053 8.59178 54.8174 8.70882 54.702 8.79411C54.5867 8.87941 54.4491 8.92927 54.3059 8.9376L49.0583 9.27558C48.3735 9.32005 48.1067 10.2006 48.6314 10.6364L52.6516 13.9895C52.764 14.0824 52.8478 14.2052 52.8934 14.3436C52.9391 14.4821 52.9446 14.6307 52.9095 14.7722L51.7088 19.5039C51.5042 20.3044 52.3581 20.9536 53.0429 20.5178L57.2143 17.8762C57.3313 17.8019 57.467 17.7624 57.6057 17.7624C57.7443 17.7624 57.88 17.8019 57.997 17.8762Z" fill="#FA8232"/>
<path d="M80.7661 17.8762L85.2487 20.7224C85.8269 21.087 86.5384 20.5445 86.3694 19.8774L85.0709 14.7722C85.0357 14.6307 85.0413 14.4821 85.087 14.3436C85.1326 14.2052 85.2164 14.0824 85.3288 13.9895L89.349 10.6364C89.8737 10.2006 89.6069 9.32005 88.922 9.27558L83.6745 8.9376C83.5313 8.92927 83.3936 8.87941 83.2783 8.79411C83.163 8.70882 83.0751 8.59178 83.0252 8.45731L81.0685 3.52993C81.0167 3.38754 80.9223 3.26453 80.7982 3.17761C80.6741 3.09069 80.5262 3.04407 80.3747 3.04407C80.2232 3.04407 80.0754 3.09069 79.9512 3.17761C79.8271 3.26453 79.7328 3.38754 79.681 3.52993L77.7243 8.45731C77.6744 8.59178 77.5864 8.70882 77.4711 8.79411C77.3558 8.87941 77.2182 8.92927 77.075 8.9376L71.8274 9.27558C71.1426 9.32005 70.8757 10.2006 71.4005 10.6364L75.4207 13.9895C75.533 14.0824 75.6169 14.2052 75.6625 14.3436C75.7081 14.4821 75.7137 14.6307 75.6786 14.7722L74.4779 19.5039C74.2733 20.3044 75.1272 20.9536 75.812 20.5178L79.9834 17.8762C80.1004 17.8019 80.2361 17.7624 80.3747 17.7624C80.5133 17.7624 80.6491 17.8019 80.7661 17.8762Z" fill="#FA8232"/>
<path d="M103.535 17.8762L108.018 20.7224C108.596 21.087 109.308 20.5445 109.139 19.8774L107.84 14.7722C107.805 14.6307 107.81 14.4821 107.856 14.3436C107.902 14.2052 107.986 14.0824 108.098 13.9895L112.118 10.6364C112.643 10.2006 112.376 9.32005 111.691 9.27558L106.444 8.9376C106.3 8.92927 106.163 8.87941 106.047 8.79411C105.932 8.70882 105.844 8.59178 105.794 8.45731L103.838 3.52993C103.786 3.38754 103.691 3.26453 103.567 3.17761C103.443 3.09069 103.295 3.04407 103.144 3.04407C102.992 3.04407 102.844 3.09069 102.72 3.17761C102.596 3.26453 102.502 3.38754 102.45 3.52993L100.493 8.45731C100.444 8.59178 100.356 8.70882 100.24 8.79411C100.125 8.87941 99.9873 8.92927 99.8441 8.9376L94.5966 9.27558C93.9117 9.32005 93.6449 10.2006 94.1696 10.6364L98.1898 13.9895C98.3022 14.0824 98.386 14.2052 98.4316 14.3436C98.4773 14.4821 98.4828 14.6307 98.4477 14.7722L97.247 19.5039C97.0425 20.3044 97.8963 20.9536 98.5811 20.5178L102.753 17.8762C102.869 17.8019 103.005 17.7624 103.144 17.7624C103.282 17.7624 103.418 17.8019 103.535 17.8762Z" fill="white" stroke="#ADB7BC" stroke-width="2.1346" stroke-linecap="round" stroke-linejoin="round"/>
<path d="M125.736 19.1029C124.78 19.1029 123.949 18.8553 123.243 18.36C122.543 17.8648 122 17.159 121.612 16.2425C121.231 15.3204 121.04 14.2161 121.04 12.9296C121.04 11.609 121.225 10.4592 121.595 9.48009C121.971 8.50102 122.518 7.74395 123.235 7.20887C123.952 6.66811 124.831 6.39772 125.873 6.39772C126.556 6.39772 127.185 6.5258 127.76 6.78195C128.341 7.0381 128.822 7.40526 129.203 7.88341C129.584 8.36156 129.821 8.93932 129.912 9.6167H128.426C128.261 9.0304 127.962 8.56648 127.53 8.22494C127.097 7.88341 126.553 7.71264 125.899 7.71264C125.17 7.71264 124.561 7.92041 124.071 8.33594C123.588 8.74579 123.235 9.34917 123.013 10.1461C122.791 10.9373 122.714 11.9107 122.782 13.0662C122.936 12.6507 123.169 12.2864 123.482 11.9733C123.801 11.6545 124.171 11.4098 124.592 11.239C125.014 11.0625 125.469 10.9743 125.958 10.9743C126.772 10.9743 127.484 11.1337 128.093 11.4525C128.702 11.7655 129.177 12.2152 129.519 12.8015C129.861 13.3821 130.031 14.0766 130.031 14.8849C130.031 15.7103 129.855 16.4417 129.502 17.0793C129.155 17.7111 128.659 18.2064 128.016 18.565C127.373 18.9236 126.613 19.1029 125.736 19.1029ZM125.719 17.7965C126.226 17.7965 126.676 17.677 127.068 17.4379C127.461 17.1988 127.769 16.8658 127.991 16.4389C128.218 16.012 128.332 15.5196 128.332 14.9618C128.332 14.3982 128.23 13.9144 128.025 13.5102C127.826 13.1061 127.53 12.7958 127.137 12.5795C126.744 12.3632 126.266 12.2551 125.702 12.2551C125.253 12.2551 124.82 12.3632 124.404 12.5795C123.995 12.7901 123.659 13.0691 123.397 13.4163C123.141 13.7635 123.013 14.1478 123.013 14.569C123.007 15.1951 123.115 15.753 123.337 16.2425C123.565 16.7264 123.884 17.1077 124.293 17.3867C124.703 17.6599 125.179 17.7965 125.719 17.7965ZM131.902 18.915V17.9502V17.4464C131.902 16.8146 132.019 16.2681 132.252 15.8071C132.492 15.346 132.805 14.9447 133.192 14.6031C133.584 14.2559 134.011 13.9457 134.472 13.6725C134.939 13.3992 135.403 13.1374 135.864 12.8869C136.331 12.6308 136.758 12.3661 137.145 12.0928C137.532 11.8139 137.842 11.5008 138.076 11.1536C138.315 10.8007 138.434 10.3852 138.434 9.90701C138.434 9.28086 138.212 8.7714 137.768 8.37863C137.33 7.98587 136.735 7.78948 135.984 7.78948C135.175 7.78948 134.527 8.01717 134.037 8.47256C133.547 8.92794 133.271 9.53417 133.209 10.2912H131.638C131.655 9.5797 131.831 8.93079 132.167 8.34448C132.503 7.75248 132.995 7.28003 133.644 6.9271C134.293 6.57418 135.093 6.39772 136.044 6.39772C136.869 6.39772 137.586 6.54572 138.195 6.84172C138.804 7.13203 139.274 7.54187 139.604 8.07125C139.94 8.59494 140.108 9.20686 140.108 9.90701C140.108 10.5445 139.991 11.091 139.758 11.5464C139.524 12.0018 139.214 12.3974 138.827 12.7332C138.446 13.0634 138.027 13.3594 137.572 13.6212C137.117 13.8831 136.658 14.1364 136.197 14.3811C135.736 14.6202 135.315 14.8735 134.934 15.1411C134.552 15.4029 134.245 15.7046 134.011 16.0461C133.778 16.3877 133.661 16.7947 133.661 17.2671V17.5147H140.176V18.915H131.902ZM147.625 18.915V15.7644H141.81V14.3214L147.565 6.56849H149.171V14.3726H151.22V15.7644H149.171V18.915H147.625ZM143.322 14.3726H147.591V8.64333L143.322 14.3726Z" fill="#77878F"/>
</svg>
